<?xml version="1.0" encoding="utf-8"?>
<!-- Generator: Adobe Illustrator 16.0.0, SVG Export Plug-In . SVG Version: 6.00 Build 0)  -->
<!DOCTYPE svg PUBLIC "-//W3C//DTD SVG 1.1//EN" "http://www.w3.org/Graphics/SVG/1.1/DTD/svg11.dtd">
<svg version="1.1" xmlns="http://www.w3.org/2000/svg" xmlns:xlink="http://www.w3.org/1999/xlink" x="0px" y="0px" width="612px"
	 height="323px" viewBox="0 0 612 323" enable-background="new 0 0 612 323" xml:space="preserve">
<g id="Layer_2" display="none">
</g>
<g id="Layer_1">
	<g>
		<path fill-rule="evenodd" clip-rule="evenodd" d="M506.972,6.257c31.355,0,62.718-0.044,94.074,0.103
			c1.987,0.01,3.97,1.486,5.954,2.28c-1.823,2.435-4.06,4.66-5.408,7.333c-47.931,94.754-95.863,189.51-143.452,284.433
			c-3.629,7.242-7.184,10.586-15.843,10.394c-28.946-0.647-57.93-0.713-86.871,0.031c-9.497,0.245-12.432-3.294-15.281-11.711
			c-24.641-72.775-49.974-145.314-74.835-218.017c-2.191-6.406-5.511-8.452-12.037-8.478c-17.849-0.075-35.693-1.095-53.542-1.239
			c-28.844-0.232-57.688-0.063-87.432-0.063c-0.984,18.893-1.835,35.248-2.748,52.747c43.244,0,85.096,0,127.574,0
			c-1.479,22.264-2.911,43.85-4.488,67.623c-43.292,0-85.428,0-127.785,0c-0.965,19.506-1.816,36.728-2.728,55.15
			c5.919,0,10.2-0.004,14.479,0c56.735,0.044,113.469,0.016,170.202,0.273c3.815,0.019,10.121,1.19,11.042,3.508
			c7.675,19.281,14.355,38.957,22.041,60.484c-107.604,0-212.713,0-317.822,0c0-3.176,0-6.353,0-9.528
			c2.438-23.971,5.934-47.893,7.114-71.926c3.66-74.444,6.437-148.928,9.556-223.395c106.38,0,212.76,0,319.14,0
			c0.392,2.322,0.533,4.716,1.207,6.953c20.808,69.015,41.665,138.017,62.524,207.017c1.067,3.53,2.225,7.035,3.974,12.553
			C440.018,155.849,473.494,81.052,506.972,6.257z"/>
		<path display="none" fill-rule="evenodd" clip-rule="evenodd" fill="#FFFFFF" d="M2.067,311.106c105.108,0,210.218,0,317.822,0
			c-7.686-21.527-14.365-41.203-22.041-60.484c-0.921-2.317-7.227-3.489-11.042-3.508c-56.733-0.258-113.467-0.229-170.202-0.273
			c-4.279-0.004-8.56,0-14.479,0c0.912-18.423,1.763-35.645,2.728-55.15c42.357,0,84.493,0,127.785,0
			c1.578-23.772,3.01-45.359,4.488-67.623c-42.478,0-84.331,0-127.574,0c0.912-17.499,1.764-33.854,2.748-52.747
			c29.744,0,58.588-0.169,87.432,0.063c17.849,0.145,35.693,1.165,53.542,1.239c6.526,0.026,9.846,2.072,12.037,8.478
			c24.861,72.703,50.195,145.242,74.835,218.017c2.85,8.417,5.784,11.956,15.281,11.711c28.941-0.744,57.925-0.679,86.871-0.031
			c8.659,0.192,12.214-3.151,15.843-10.394c47.589-94.923,95.521-189.678,143.452-284.433c1.349-2.673,3.585-4.898,5.408-7.333
			c0,101.484,0,202.966,0,304.849c-20.876,0-41.755,0-62.634,0c-177.198,0-354.4,0.012-531.599-0.103
			C9.2,313.386,5.634,311.899,2.067,311.106z"/>
		<path display="none" fill-rule="evenodd" clip-rule="evenodd" fill="#FFFFFF" d="M506.972,6.257
			c-33.478,74.795-66.954,149.591-101.39,226.522c-1.749-5.518-2.906-9.022-3.974-12.553c-20.859-69-41.717-138.002-62.524-207.017
			c-0.674-2.237-0.815-4.631-1.207-6.953C394.24,6.257,450.605,6.257,506.972,6.257z"/>
		<path display="none" fill-rule="evenodd" clip-rule="evenodd" fill="#FFFFFF" d="M18.737,6.257
			c-3.119,74.467-5.896,148.951-9.556,223.395c-1.18,24.033-4.677,47.955-7.114,71.926c0-98.44,0-196.88,0-295.321
			C7.667,6.257,13.203,6.257,18.737,6.257z"/>
	</g>
</g>
</svg>
